<?xml version="1.0" encoding="UTF-8"?>
<svg width="41px" height="41px" viewBox="0 0 41 41" version="1.1" xmlns="http://www.w3.org/2000/svg" xmlns:xlink="http://www.w3.org/1999/xlink">
    <!-- Generator: Sketch 53 (72520) - https://sketchapp.com -->
    <title>Fill 3</title>
    <desc>Created with Sketch.</desc>
    <g id="Moduler" stroke="none" stroke-width="1" fill="none" fill-rule="evenodd">
        <g id="DESKTOP---Footer" transform="translate(-648.000000, -72.000000)" fill="#000000">
            <path d="M681.841773,81.3534945 C681.841773,82.6776724 680.749682,83.7527657 679.400409,83.7527657 C678.053,83.7527657 676.960909,82.6776724 676.960909,81.3534945 C676.960909,80.0293166 678.053,78.9542234 679.400409,78.9542234 C680.749682,78.9542234 681.841773,80.0293166 681.841773,81.3534945 M668.541,98.9066356 C664.763409,98.9066356 661.703318,95.8974734 661.703318,92.1868448 C661.703318,88.4743848 664.763409,85.4652226 668.541,85.4652226 C672.318591,85.4652226 675.380545,88.4743848 675.380545,92.1868448 C675.380545,95.8974734 672.318591,98.9066356 668.541,98.9066356 M668.541,81.8333487 C662.722727,81.8333487 658.005864,86.4688871 658.005864,92.1868448 C658.005864,97.9048025 662.722727,102.538509 668.541,102.538509 C674.359273,102.538509 679.076136,97.9048025 679.076136,92.1868448 C679.076136,86.4688871 674.359273,81.8333487 668.541,81.8333487 M668.5,72 C662.933318,72 662.234455,72.0238096 660.048409,72.1208793 C657.866091,72.2197806 656.375182,72.5586089 655.0725,73.0567782 C653.725091,73.571431 652.580818,74.2600768 651.442136,75.3809577 C650.301591,76.5018386 649.600864,77.6245509 649.077182,78.9505603 C648.570273,80.2307821 648.223636,81.6959859 648.123,83.8388464 C648.024227,85.9890329 648,86.6740157 648,92.1465517 C648,97.6172563 648.024227,98.3040705 648.123,100.452426 C648.223636,102.597118 648.570273,104.06049 649.077182,105.342543 C649.600864,106.668553 650.301591,107.791265 651.442136,108.912146 C652.580818,110.031195 653.725091,110.719841 655.0725,111.234494 C656.375182,111.732663 657.866091,112.073323 660.048409,112.172224 C662.234455,112.269294 662.933318,112.293103 668.5,112.293103 C674.068545,112.293103 674.765545,112.269294 676.951591,112.172224 C679.133909,112.073323 680.624818,111.732663 681.929364,111.234494 C683.276773,110.719841 684.419182,110.031195 685.559727,108.912146 C686.698409,107.791265 687.401,106.668553 687.924682,105.342543 C688.431591,104.06049 688.778227,102.597118 688.877,100.452426 C688.977636,98.3040705 689,97.6172563 689,92.1465517 C689,86.6740157 688.977636,85.9890329 688.877,83.8388464 C688.778227,81.6959859 688.431591,80.2307821 687.924682,78.9505603 C687.401,77.6245509 686.698409,76.5018386 685.559727,75.3809577 C684.419182,74.2600768 683.276773,73.571431 681.929364,73.0567782 C680.624818,72.5586089 679.133909,72.2197806 676.951591,72.1208793 C674.765545,72.0238096 674.068545,72 668.5,72 M668.5,75.6300423 C673.9735,75.6300423 674.622045,75.6501889 676.783864,75.7472586 C678.783545,75.8370024 679.868182,76.1648417 680.591273,76.4413989 C681.547318,76.8058683 682.229409,77.243598 682.948773,77.9487273 C683.666273,78.6520251 684.109818,79.3241873 684.482545,80.2637492 C684.762091,80.974373 685.095682,82.0403088 685.187,84.0055133 C685.285773,86.1300588 685.306273,86.7674224 685.306273,92.1465517 C685.306273,97.525681 685.285773,98.1630447 685.187,100.28759 C685.095682,102.250963 684.762091,103.31873 684.482545,104.027523 C684.109818,104.968916 683.666273,105.639247 682.948773,106.344376 C682.229409,107.049505 681.547318,107.487235 680.591273,107.851705 C679.868182,108.128262 678.783545,108.456101 676.783864,108.545845 C674.622045,108.642915 673.975364,108.663061 668.5,108.663061 C663.0265,108.663061 662.377955,108.642915 660.216136,108.545845 C658.218318,108.456101 657.131818,108.128262 656.410591,107.851705 C655.452682,107.487235 654.770591,107.049505 654.053091,106.344376 C653.335591,105.639247 652.892045,104.968916 652.519318,104.027523 C652.239773,103.31873 651.906182,102.250963 651.813,100.28759 C651.714227,98.1630447 651.693727,97.525681 651.693727,92.1465517 C651.693727,86.7674224 651.714227,86.1300588 651.813,84.0055133 C651.906182,82.0403088 652.239773,80.974373 652.519318,80.2637492 C652.892045,79.3241873 653.335591,78.6520251 654.053091,77.9487273 C654.770591,77.243598 655.452682,76.8058683 656.410591,76.4413989 C657.131818,76.1648417 658.218318,75.8370024 660.216136,75.7472586 C662.377955,75.6501889 663.0265,75.6300423 668.5,75.6300423" id="Fill-3"></path>
        </g>
    </g>
</svg>